PathFileType	4	(X/Y/Z)	Patient4_TMGait_0pt2_02_left_21.trc.trc
DataRate	CameraRate	NumFrames	NumMarkers	Units	OrigDataRate	OrigDataStartFrame	OrigNumFrames
47.781569965870	47.781569965870	5	33	mm	47.781569965870	53	       141
Frame#	Time	R.Midfoot.Superior			Sacral			L.Shoulder			Chest			R.Shoulder			Neck			R.ASIS			L.ASIS			R.Thigh.Superior			R.Thigh.Lateral			R.Thigh.Inferior			R.Patella			L.Thigh.Superior			L.Thigh.Lateral			L.Thigh.Inferior			L.Patella			L.Shank.Superior			L.Shank.Lateral			L.Shank.Inferior			R.Shank.Superior			R.Shank.Lateral			R.Shank.Inferior			R.Heel			R.Midfoot.Lateral			R.Toe			L.Heel			L.Midfoot.Lateral			L.Midfoot.Superior			L.Toe			L.Elbow			L.Wrist			R.Elbow			R.Wrist			
		X1	Y1	Z1	X2	Y2	Z2	X3	Y3	Z3	X4	Y4	Z4	X5	Y5	Z5	X6	Y6	Z6	X7	Y7	Z7	X8	Y8	Z8	X9	Y9	Z9	X10	Y10	Z10	X11	Y11	Z11	X12	Y12	Z12	X13	Y13	Z13	X14	Y14	Z14	X15	Y15	Z15	X16	Y16	Z16	X17	Y17	Z17	X18	Y18	Z18	X19	Y19	Z19	X20	Y20	Z20	X21	Y21	Z21	X22	Y22	Z22	X23	Y23	Z23	X24	Y24	Z24	X25	Y25	Z25	X26	Y26	Z26	X27	Y27	Z27	X28	Y28	Z28	X29	Y29	Z29	X30	Y30	Z30	X31	Y31	Z31	X32	Y32	Z32	X33	Y33	Z33	

53	48.638285714286	1018.695520736283	167.598889642967	609.930214435078	950.758614005245	995.507062262531	436.963848069329	1120.097380243701	1430.749891598924	256.404782963389	1228.845932684955	1356.289120746581	410.791834599577	1155.566881268058	1427.381619564945	588.403213916289	1111.296568518025	1488.910793332252	415.814318531840	1184.928045409466	936.633750922877	547.308173306435	1164.162041925815	955.766609917667	274.649197311243	1257.560967716665	754.162553293604	513.466499958308	1210.416261512800	636.847428312618	586.845684231200	1291.197748737297	589.629802126786	501.849849263169	1300.368604244678	475.022079590951	526.155936313471	1233.126199795874	753.755717541790	314.756232833381	1161.073735765282	622.887046070277	261.923204593023	1252.073713658398	558.946484648250	331.107832394815	1258.786539618677	486.093400296457	341.709457123421	1225.696298105848	410.083308720747	336.396877743965	1129.683189924517	300.391514978001	287.664013173836	1170.260146521259	188.548145545805	362.828215290811	1216.100866943435	411.281521673953	546.171328591472	1094.683718618483	391.916494050060	616.596162943658	1064.742195850260	281.868814680536	578.450392219467	856.927659067446	243.013363877912	563.743192915261	910.289287080579	184.314607521886	642.258270564733	1069.454635815074	51.875623845412	645.253562352680	1032.158996753938	38.712054358104	404.245403732887	1106.224853972715	36.663726813783	323.652860817789	1189.638754835232	96.738833281219	351.815245742674	1317.564728200400	45.825607552364	322.511477081963	1115.175019578970	1088.316451847071	114.026224517824	1218.261995329902	847.243421091217	125.484868997642	1258.350301761429	1088.471737813032	690.990385614439	1460.124654552048	924.404865764587	703.459350961803	
54	48.659214285714	1024.607892774569	173.990563744636	607.654693572881	950.399638812688	991.686065215890	432.978567591076	1119.820817226390	1429.202389544061	255.685422850459	1226.839729520665	1354.128263262037	410.943350658717	1151.441786799887	1423.368467388250	588.498677310258	1109.315520260118	1486.404496194160	415.579068574731	1184.724765028881	934.774425370435	544.211642268281	1164.979691878290	954.090885362958	271.394142531747	1262.394987759908	755.982609213841	508.811332120300	1219.723075385784	637.603584535035	582.590266730881	1301.193413112329	592.537999220348	496.812608203523	1312.976144023520	477.022489225991	521.437381639938	1235.804842256950	752.398981619769	312.342050476604	1164.814414693051	620.579823906753	260.341951595036	1256.038888835338	557.423473409476	330.399275444331	1263.244456127432	484.139788551239	341.444597757951	1228.491610060416	407.731781640576	336.236258070198	1130.641113976279	299.642765697806	287.348148177398	1168.434209766651	187.219588611533	362.915609089811	1227.520572208310	413.204155641480	542.254299768749	1104.686677125927	396.883917017169	611.830094341734	1072.986697268225	286.780452318737	575.103696255907	863.991979650730	252.030688278211	559.371404481033	915.826445500593	193.149504094629	638.982292064496	1072.938330535284	56.401771605541	644.903337987986	1028.027036735655	38.802384834791	404.186307808889	1102.110995814519	36.689734075039	323.630546197897	1185.646652817041	96.561970806705	351.985074120332	1313.513897978050	45.384080115531	322.504131298357	1129.432555393092	1087.484292066392	111.112012987823	1245.598830858211	852.454993916189	123.134552855726	1234.824876166514	1077.581591576968	690.329889866815	1420.418024849550	895.991642470270	706.522147497370	
55	48.680142857143	1032.209029382912	178.439749723962	605.957354567527	950.047993893564	988.116584474167	429.184939819528	1119.837082856741	1427.831893791218	255.319427732395	1225.015551275462	1352.065995911599	411.461144103957	1147.344304386272	1419.364539698674	588.883533387176	1107.504896928396	1484.024551408310	415.693422173353	1184.493059420228	933.012902282110	541.441471005004	1165.801249406642	952.518722370037	268.406577151504	1266.430310228321	757.574490705659	504.967908546565	1227.639272302343	638.473559342845	579.253348870826	1309.750178179321	595.270441962095	492.916609109241	1323.994640794160	479.226260513128	517.878719456704	1238.128921369246	751.036616084006	310.168702642216	1167.972964870696	618.408169637102	258.856946533808	1259.289173275738	555.893046865509	329.797390251533	1266.877507891123	482.253556619263	341.289285579650	1230.632705263238	405.514955979660	336.111244943399	1131.124377967984	298.889397386445	287.046453403994	1166.390439462200	185.979570881677	362.993844284169	1237.929000063230	414.965641669833	539.319950637418	1114.006012696586	400.394752415995	608.090454900565	1081.661526259543	290.024838371786	572.547939717680	871.908614317963	256.815473450319	555.860185359462	923.037222001245	198.536177213243	636.468811955282	1079.688974269047	60.219341058688	645.015776811559	1023.880125684965	38.877623395988	404.123349103563	1097.986493997504	36.701368190399	323.596628685629	1181.631774250491	96.393542003095	352.126165595617	1309.447194488957	44.992223965663	322.492032440196	1143.811504627235	1087.550303130595	108.632407914052	1273.160898662574	859.494824508454	121.318565397911	1210.348962485177	1067.879242947365	689.555949800577	1377.939837219530	870.180783039923	708.340776671383	
56	48.701071428571	1041.829476019216	180.608027238177	604.986159617890	949.699895405636	985.015549108575	425.535119394019	1120.257606193690	1426.791551029626	255.282672888309	1223.420607554418	1350.277909616047	412.365961924533	1143.253670510220	1415.617001696547	589.507651350112	1105.901536691292	1481.945017766454	416.098643393251	1184.165341152917	931.501284129640	539.052847112668	1166.675918736902	951.198067906228	265.752402940711	1269.613086878527	758.999983035640	501.999034837048	1234.034200070494	639.480738414483	576.890059832819	1316.744808307709	597.809340898590	490.211907555562	1333.289505499166	481.650497346702	515.551428590696	1239.988807070570	749.732751544508	308.290967914239	1170.373922447142	616.496375010138	257.467664375129	1261.573840450474	554.420469656256	329.299142238995	1269.386399686146	480.519809657750	341.220168427134	1231.872216123330	403.537660692072	335.994663882688	1130.961162809466	298.166619270214	286.731880169914	1164.041382131203	184.885861967468	363.052186072447	1247.279264273668	416.541609524029	537.449395443794	1122.690644051395	402.239937049617	605.547430671167	1090.946347667500	291.379611829431	570.929848594241	880.973582941520	256.942613798544	553.481660701635	932.268132169633	200.052593081948	634.935793344509	1090.133734775979	62.972452369302	645.663010499231	1019.710415771515	38.931671172859	404.056971928217	1093.844854875212	36.696706813577	323.549884074621	1177.581490081496	96.241493819410	352.229712377575	1305.355996489178	44.675557686430	322.475788399953	1158.270439846598	1088.683080609451	106.523076606901	1300.730867708649	868.517955980408	119.965966672483	1185.204278646411	1059.766754746608	688.602693462435	1333.272603980145	847.614065840107	708.904605999392	
57	48.722000000000	1053.721460395844	180.368450569887	604.817572343404	949.360427025521	982.581105215426	421.994288339182	1121.170128273018	1426.222739990826	255.552859089578	1222.082010258167	1348.933388453864	413.673919125936	1139.143154817181	1412.374961908459	590.317551740016	1104.528451981963	1480.329606577795	416.731269497454	1183.671476100718	930.380003466022	537.099826823138	1167.657643303269	950.271378412831	263.504382375802	1271.908246814838	760.338247645473	499.917218608383	1238.828642905708	640.651497788499	575.493628443338	1322.087897959630	600.156430456374	488.669252963305	1340.772537735654	484.319097566783	514.435546977515	1241.301229730289	748.549816667991	306.771832458125	1171.888456733841	614.957673967621	256.189266833274	1262.698061351443	553.071676043481	328.917113260910	1270.538218639274	479.020293964050	341.227909189714	1232.013096854862	401.894568556168	335.874361837705	1130.017347951424	297.513450597354	286.388081777806	1161.315756771209	183.989841526922	363.085659373784	1255.551449768366	417.944100661872	536.651160319502	1130.827793085738	402.326786567021	604.287746086552	1101.002444118803	290.776595130157	570.325339704657	891.498728921119	252.284672902177	552.424430067263	943.829589734164	197.555663437380	634.516448475345	1104.522598087680	64.493314787227	646.840306833977	1015.511253282097	38.960708444048	403.987342460805	1089.680505481307	36.675559001923	323.490031149689	1173.485808612476	96.113632217990	352.290169170523	1301.232952652029	44.454395578410	322.457195376104	1172.766563841862	1091.017404825590	104.724503369726	1328.083823990479	879.617226565706	119.028213063768	1159.698163192370	1053.603927685655	687.420857552972	1287.107212160744	828.843488529734	708.247682600895	
